<?xml version="1.0" encoding="UTF-8" standalone="no"?>
<!-- Created with Inkscape (http://www.inkscape.org/) -->

<svg
   width="75px"
   height="75px"
   viewBox="0 0 210 210"
   version="1.1"
   id="svg1"
   inkscape:version="1.3.2 (091e20e, 2023-11-25, custom)"
   sodipodi:docname="logo.svg"
   xmlns:inkscape="http://www.inkscape.org/namespaces/inkscape"
   xmlns:sodipodi="http://sodipodi.sourceforge.net/DTD/sodipodi-0.dtd"
   xmlns="http://www.w3.org/2000/svg"
   xmlns:svg="http://www.w3.org/2000/svg">
  <sodipodi:namedview
     id="namedview1"
     pagecolor="#ffffff"
     bordercolor="#000000"
     borderopacity="0.25"
     inkscape:showpageshadow="2"
     inkscape:pageopacity="0.0"
     inkscape:pagecheckerboard="0"
     inkscape:deskcolor="#d1d1d1"
     inkscape:document-units="mm"
     inkscape:zoom="7.831267"
     inkscape:cx="37.350278"
     inkscape:cy="38.627211"
     inkscape:window-width="1920"
     inkscape:window-height="991"
     inkscape:window-x="-9"
     inkscape:window-y="-9"
     inkscape:window-maximized="1"
     inkscape:current-layer="layer1" />
  <defs
     id="defs1">
    <rect
       x="333.72207"
       y="421.84781"
       width="143.02374"
       height="105.46195"
       id="rect8" />
  </defs>
  <g
     inkscape:label="Слой 1"
     inkscape:groupmode="layer"
     id="layer1">
    <path
       id="rect1"
       style="fill:#1c274c;fill-opacity:1;stroke-width:0.264583"
       d="M 74.081217,69.550019 C 60.740312,69.550019 50,80.290331 50,93.631236 v 59.629434 c 0,13.34091 10.740312,24.08122 24.081217,24.08122 h 59.629443 c 13.3409,0 24.08121,-10.74031 24.08121,-24.08122 V 93.631236 c 0,-13.340905 -10.74031,-24.081217 -24.08121,-24.081217 z m 0.382406,11.849406 h 58.864627 c 6.98809,0 12.61422,5.626124 12.61422,12.614217 v 58.864628 c 0,6.98809 -5.62613,12.61421 -12.61422,12.61421 H 74.463623 c -6.988093,0 -12.614217,-5.62612 -12.614217,-12.61421 V 94.013642 c 0,-6.988093 5.626124,-12.614217 12.614217,-12.614217 z" />
    <line
       x1="51.377148"
       y1="85.397392"
       x2="32.872002"
       y2="85.397392"
       stroke="#000000"
       stroke-width="4.03987"
       stroke-linecap="round"
       id="line13"
       style="stroke-width:5.744;stroke-dasharray:none" />
    <path
       id="rect5"
       style="fill:#cbc8df;fill-opacity:1;stroke-width:0.264583"
       d="m 84.019629,92.428359 c -5.717531,0 -10.320817,4.603286 -10.320817,10.320821 v 39.75261 c 0,5.71753 4.603286,10.32082 10.320817,10.32082 h 39.752621 c 5.71753,0 10.32081,-4.60329 10.32081,-10.32082 v -39.75261 c 0,-5.717535 -4.60328,-10.320821 -10.32081,-10.320821 z m 9.225793,7.697201 h 21.301028 c 6.56457,0 11.84941,5.28484 11.84941,11.84941 V 133.276 c 0,6.56457 -5.28484,11.8494 -11.84941,11.8494 H 93.245422 c -6.564572,0 -11.849406,-5.28483 -11.849406,-11.8494 v -21.30103 c 0,-6.56457 5.284834,-11.84941 11.849406,-11.84941 z" />
    <text
       xml:space="preserve"
       transform="matrix(0.26458333,0,0,0.26458333,0.8086866,-1.8063678)"
       id="text8"
       style="font-style:normal;font-variant:normal;font-weight:normal;font-stretch:normal;font-size:80px;font-family:Impact;-inkscape-font-specification:Impact;white-space:pre;shape-inside:url(#rect8);display:inline;fill:#41359d;fill-opacity:1"><tspan
         x="333.72266"
         y="501.93424"
         id="tspan2">126</tspan></text>
    <line
       x1="105.37215"
       y1="69.158287"
       x2="105.37215"
       y2="53.872154"
       stroke="#000000"
       stroke-width="2.64583"
       stroke-linecap="round"
       id="line14"
       style="stroke-width:5.74431;stroke-miterlimit:4;stroke-dasharray:none" />
    <line
       x1="134.87216"
       y1="69.158287"
       x2="134.87216"
       y2="53.872154"
       stroke="#000000"
       stroke-width="2.64583"
       stroke-linecap="round"
       id="line15"
       style="stroke-width:5.74431;stroke-miterlimit:4;stroke-dasharray:none" />
    <line
       x1="51.377148"
       y1="152.87199"
       x2="32.872002"
       y2="152.87199"
       stroke="#000000"
       stroke-width="4.03987"
       stroke-linecap="round"
       id="line68"
       style="stroke-width:5.744;stroke-dasharray:none" />
    <line
       x1="51.377148"
       y1="118.872"
       x2="32.872002"
       y2="118.872"
       stroke="#000000"
       stroke-width="4.03987"
       stroke-linecap="round"
       id="line69"
       style="stroke-width:5.744;stroke-dasharray:none" />
    <line
       x1="51.377148"
       y1="85.397392"
       x2="32.872002"
       y2="85.397392"
       stroke="#000000"
       stroke-width="4.03987"
       stroke-linecap="round"
       id="line70"
       style="stroke-width:5.744;stroke-dasharray:none" />
    <line
       x1="174.07599"
       y1="84.872002"
       x2="155.57085"
       y2="84.872002"
       stroke="#000000"
       stroke-width="4.03987"
       stroke-linecap="round"
       id="line71"
       style="stroke-width:5.744;stroke-dasharray:none" />
    <line
       x1="174.07599"
       y1="118.872"
       x2="155.57085"
       y2="118.872"
       stroke="#000000"
       stroke-width="4.03987"
       stroke-linecap="round"
       id="line72"
       style="stroke-width:5.744;stroke-dasharray:none" />
    <line
       x1="174.07599"
       y1="152.87199"
       x2="155.57085"
       y2="152.87199"
       stroke="#000000"
       stroke-width="4.03987"
       stroke-linecap="round"
       id="line73"
       style="stroke-width:5.744;stroke-dasharray:none" />
    <line
       x1="72.872154"
       y1="190.15829"
       x2="72.872154"
       y2="174.87216"
       stroke="#000000"
       stroke-width="2.64583"
       stroke-linecap="round"
       id="line74"
       style="stroke-width:5.74431;stroke-miterlimit:4;stroke-dasharray:none" />
    <line
       x1="104.87215"
       y1="190.15829"
       x2="104.87215"
       y2="174.87216"
       stroke="#000000"
       stroke-width="2.64583"
       stroke-linecap="round"
       id="line75"
       style="stroke-width:5.74431;stroke-miterlimit:4;stroke-dasharray:none" />
    <line
       x1="134.87216"
       y1="190.15829"
       x2="134.87216"
       y2="174.87216"
       stroke="#000000"
       stroke-width="2.64583"
       stroke-linecap="round"
       id="line76"
       style="stroke-width:5.74431;stroke-miterlimit:4;stroke-dasharray:none" />
    <line
       x1="72.273293"
       y1="69.156204"
       x2="72.273293"
       y2="53.870075"
       stroke="#000000"
       stroke-width="2.64583"
       stroke-linecap="round"
       id="line67"
       style="stroke-width:5.74431;stroke-miterlimit:4;stroke-dasharray:none" />
  </g>
</svg>
